# xmcd
#
# Track frame offsets:
#	150
#	11277
#	26466
#	41868
#	52894
#	67313
#	80468
#	90851
#	108656
#	116740
#	125831
#	138616
#	146746
#	163127
#	170932
#	185540
#
# Disc length: 2623 seconds
#
# Revision: 1
# Processed by: cddbd v1.5.2PL0 Copyright (c) Steve Scherf et al.
# Submitted via: EZCDAudioConverter 7.1.5.1
#
DISCID=eb0a3d10
DTITLE=陈光荣 - 头文字D 电影原声带
DYEAR=2005
DGENRE=
TTITLE0=Intro AE86
TTITLE1=God's Hand On the Wheel 风火轮
TTITLE2=Never Mind 大无畏
TTITLE3=The Discovery 秋明山车神
TTITLE4=Lost Good Things 童话破灭
TTITLE5=We Roll 咆哮
TTITLE6=My Limbo 隐居豆腐店
TTITLE7=The Way of a Man 男道
TTITLE8=Gloves 2 Ali 豆腐宅急便
TTITLE9=First Date 两少无猜
TTITLE10=A Racer's Dream 飘移世界
TTITLE11=Lost in Hell 战败秋明山
TTITLE12=Tanning in the Sunray 沙滩恋曲
TTITLE13=Driving to Heaven 向天空飞驰
TTITLE14=Champion 飙出梦想
TTITLE15=Initial D Teaser 头文字D预告
EXTD=
EXTT0=
EXTT1=
EXTT2=
EXTT3=
EXTT4=
EXTT5=
EXTT6=
EXTT7=
EXTT8=
EXTT9=
EXTT10=
EXTT11=
EXTT12=
EXTT13=
EXTT14=
EXTT15=
PLAYORDER=
